<?xml version="1.0" encoding="UTF-8" standalone="no"?>
<!-- Generator: Adobe Illustrator 27.5.0, SVG Export Plug-In . SVG Version: 6.00 Build 0)  -->

<svg
   version="1.1"
   id="Layer_2"
   x="0px"
   y="0px"
   viewBox="0 0 72.515998 68.967001"
   xml:space="preserve"
   width="72.515999"
   height="68.967003"
   sodipodi:docname="gem_orange.svg"
   inkscape:version="1.3.2 (091e20e, 2023-11-25, custom)"
   xmlns:inkscape="http://www.inkscape.org/namespaces/inkscape"
   xmlns:sodipodi="http://sodipodi.sourceforge.net/DTD/sodipodi-0.dtd"
   xmlns="http://www.w3.org/2000/svg"
   xmlns:svg="http://www.w3.org/2000/svg"><sodipodi:namedview
   id="namedview1"
   pagecolor="#ffffff"
   bordercolor="#000000"
   borderopacity="0.25"
   inkscape:showpageshadow="2"
   inkscape:pageopacity="0.0"
   inkscape:pagecheckerboard="0"
   inkscape:deskcolor="#d1d1d1"
   showguides="false"
   inkscape:zoom="1.8101934"
   inkscape:cx="85.073785"
   inkscape:cy="-6.3529125"
   inkscape:window-width="1920"
   inkscape:window-height="1009"
   inkscape:window-x="-8"
   inkscape:window-y="-8"
   inkscape:window-maximized="1"
   inkscape:current-layer="Layer_2"><sodipodi:guide
     position="69032.968,-71804.458"
     orientation="0.70710678,-0.70710678"
     id="guide1"
     inkscape:locked="false" /><sodipodi:guide
     position="69197.031,-71901.333"
     orientation="0,-1"
     id="guide2"
     inkscape:locked="false" /></sodipodi:namedview><defs
   id="defs407"><filter
     style="color-interpolation-filters:sRGB"
     id="filter453"
     x="0"
     y="0"
     width="1"
     height="1"><feColorMatrix
       type="hueRotate"
       values="70"
       result="color1"
       id="feColorMatrix452" /><feColorMatrix
       type="saturate"
       values="1"
       result="color2"
       id="feColorMatrix453" /></filter><filter
     style="color-interpolation-filters:sRGB"
     id="filter474"
     x="0"
     y="0"
     width="1"
     height="1"><feColorMatrix
       type="hueRotate"
       values="26"
       result="color1"
       id="feColorMatrix473" /><feColorMatrix
       type="saturate"
       values="1"
       result="fbSourceGraphic"
       id="feColorMatrix474" /><feColorMatrix
       result="fbSourceGraphicAlpha"
       in="fbSourceGraphic"
       values="0 0 0 -1 0 0 0 0 -1 0 0 0 0 -1 0 0 0 0 1 0"
       id="feColorMatrix821" /><feComposite
       id="feComposite821"
       in2="fbSourceGraphic"
       operator="arithmetic"
       k1="0.4"
       k2="0.5"
       result="composite1"
       in="fbSourceGraphic"
       k3="0"
       k4="0" /><feColorMatrix
       id="feColorMatrix822"
       in="composite1"
       values="1"
       type="saturate"
       result="colormatrix1" /><feFlood
       id="feFlood822"
       flood-opacity="1"
       flood-color="rgb(0,160,200)"
       result="flood1" /><feBlend
       id="feBlend822"
       in="flood1"
       in2="colormatrix1"
       mode="multiply"
       result="blend1" /><feBlend
       id="feBlend823"
       in2="blend1"
       mode="screen"
       result="blend2" /><feColorMatrix
       id="feColorMatrix823"
       in="blend2"
       values="1"
       type="saturate"
       result="colormatrix2" /><feComposite
       id="feComposite823"
       in="colormatrix2"
       in2="fbSourceGraphic"
       operator="in"
       result="composite2" /></filter><filter
     style="color-interpolation-filters:sRGB"
     id="filter489"
     x="0"
     y="0"
     width="1"
     height="1"><feColorMatrix
       type="hueRotate"
       values="154"
       result="color1"
       id="feColorMatrix488" /><feColorMatrix
       type="saturate"
       values="1"
       result="fbSourceGraphic"
       id="feColorMatrix489" /><feColorMatrix
       result="fbSourceGraphicAlpha"
       in="fbSourceGraphic"
       values="0 0 0 -1 0 0 0 0 -1 0 0 0 0 -1 0 0 0 0 1 0"
       id="feColorMatrix794" /><feComposite
       id="feComposite794"
       in2="fbSourceGraphic"
       operator="arithmetic"
       k1="0.4"
       k2="0.6"
       result="composite1"
       in="fbSourceGraphic"
       k3="0"
       k4="0" /><feColorMatrix
       id="feColorMatrix795"
       in="composite1"
       values="1"
       type="saturate"
       result="colormatrix1" /><feFlood
       id="feFlood795"
       flood-opacity="1"
       flood-color="rgb(70,200,0)"
       result="flood1" /><feBlend
       id="feBlend795"
       in="flood1"
       in2="colormatrix1"
       mode="multiply"
       result="blend1" /><feBlend
       id="feBlend796"
       in2="blend1"
       mode="screen"
       result="blend2" /><feColorMatrix
       id="feColorMatrix796"
       in="blend2"
       values="1"
       type="saturate"
       result="colormatrix2" /><feComposite
       id="feComposite796"
       in="colormatrix2"
       in2="fbSourceGraphic"
       operator="in"
       result="composite2" /></filter><filter
     style="color-interpolation-filters:sRGB"
     id="filter640"
     x="0"
     y="0"
     width="1"
     height="1"><feComposite
       in2="SourceGraphic"
       operator="arithmetic"
       k1="0.3"
       k2="0.6"
       result="composite1"
       id="feComposite639"
       k3="0"
       k4="0" /><feColorMatrix
       in="composite1"
       values="1"
       type="saturate"
       result="colormatrix1"
       id="feColorMatrix639" /><feFlood
       flood-opacity="1"
       flood-color="rgb(255,152,9)"
       result="flood1"
       id="feFlood639" /><feBlend
       in="flood1"
       in2="colormatrix1"
       mode="multiply"
       result="blend1"
       id="feBlend639" /><feBlend
       in2="blend1"
       mode="screen"
       result="blend2"
       id="feBlend640" /><feColorMatrix
       in="blend2"
       values="1"
       type="saturate"
       result="colormatrix2"
       id="feColorMatrix640" /><feComposite
       in="colormatrix2"
       in2="SourceGraphic"
       operator="in"
       result="composite2"
       id="feComposite640" /></filter><filter
     style="color-interpolation-filters:sRGB"
     id="filter665"
     x="0"
     y="0"
     width="1"
     height="1"><feComposite
       in2="SourceGraphic"
       operator="arithmetic"
       k1="0.2"
       k2="0.5"
       result="composite1"
       id="feComposite664"
       k3="0"
       k4="0" /><feColorMatrix
       in="composite1"
       values="1"
       type="saturate"
       result="colormatrix1"
       id="feColorMatrix664" /><feFlood
       flood-opacity="1"
       flood-color="rgb(255,252,29)"
       result="flood1"
       id="feFlood664" /><feBlend
       in="flood1"
       in2="colormatrix1"
       mode="multiply"
       result="blend1"
       id="feBlend664" /><feBlend
       in2="blend1"
       mode="screen"
       result="blend2"
       id="feBlend665" /><feColorMatrix
       in="blend2"
       values="1"
       type="saturate"
       result="colormatrix2"
       id="feColorMatrix665" /><feComposite
       in="colormatrix2"
       in2="SourceGraphic"
       operator="in"
       result="composite2"
       id="feComposite665" /></filter></defs>












<g
   id="g333"
   transform="translate(-28.123,-258.085)"
   style="filter:url(#filter640)">
	<polygon
   style="fill:#8a1155"
   points="64.381,314.082 53.176,327.052 75.585,327.052 "
   id="polygon294" />
	<polygon
   style="fill:#8a1155"
   points="84.841,285.92 84.841,299.216 100.639,292.568 "
   id="polygon295" />
	<polygon
   style="fill:#ff3fab"
   points="43.92,299.216 43.92,285.92 28.123,292.568 "
   id="polygon296" />
	<polygon
   style="fill:#ffb1d9"
   points="64.381,271.055 75.585,258.085 53.176,258.085 "
   id="polygon297" />
	<polygon
   style="fill:#ffb1d9"
   points="51.736,275.164 53.176,258.085 35.047,271.256 "
   id="polygon298" />
	<polygon
   style="fill:#ff76c0"
   points="51.736,275.164 64.381,271.055 53.176,258.085 "
   id="polygon299" />
	<polygon
   style="fill:#fe91cf"
   points="43.92,285.92 35.047,271.256 28.123,292.568 "
   id="polygon300" />
	<polygon
   style="fill:#ff3fab"
   points="43.92,285.92 51.736,275.164 35.047,271.256 "
   id="polygon301" />
	<polygon
   style="fill:#e11287"
   points="84.841,285.92 100.639,292.568 93.714,271.256 "
   id="polygon302" />
	<polygon
   style="fill:#b0176a"
   points="77.026,275.164 84.841,285.92 93.714,271.256 "
   id="polygon303" />
	<polygon
   style="fill:#ff3fab"
   points="77.026,275.164 93.714,271.256 75.585,258.085 "
   id="polygon304" />
	<polygon
   style="fill:#8a1155"
   points="77.026,309.973 75.585,327.052 93.714,313.881 "
   id="polygon305" />
	<polygon
   style="fill:#e11287"
   points="77.026,309.973 64.381,314.082 75.585,327.052 "
   id="polygon306" />
	<polygon
   style="fill:#e11287"
   points="51.736,309.973 35.047,313.881 53.176,327.052 "
   id="polygon307" />
	<polygon
   style="fill:#b0176a"
   points="64.381,314.082 51.736,309.973 53.176,327.052 "
   id="polygon308" />
	<polygon
   style="fill:#e11287"
   points="100.639,292.568 84.841,299.216 93.714,313.881 "
   id="polygon309" />
	<polygon
   style="fill:#b0176a"
   points="84.841,299.216 77.026,309.973 93.714,313.881 "
   id="polygon310" />
	<polygon
   style="fill:#e11287"
   points="43.92,299.216 28.123,292.568 35.047,313.881 "
   id="polygon311" />
	<polygon
   style="fill:#8a1155"
   points="51.736,309.973 43.92,299.216 35.047,313.881 "
   id="polygon312" />
	<polygon
   style="fill:#ff3fab"
   points="60.437,280.429 68.325,280.429 64.381,271.056 "
   id="polygon313" />
	<polygon
   style="fill:#fe91cf"
   points="64.381,271.055 77.026,275.164 75.585,258.085 "
   id="polygon314" />
	<polygon
   style="fill:#b0176a"
   points="68.325,304.708 64.381,314.082 77.026,309.973 "
   id="polygon315" />
	<polygon
   style="fill:#b0176a"
   points="74.707,285.065 77.146,292.568 84.841,285.921 "
   id="polygon316" />
	<polygon
   style="fill:#ff3fab"
   points="54.054,300.071 51.616,292.568 43.92,299.216 "
   id="polygon317" />
	<polygon
   style="fill:#fe91cf"
   points="60.437,280.429 64.381,271.056 51.736,275.164 "
   id="polygon318" />
	<path
   style="fill:#ffb1d9"
   d="m 76.329,290.057 -1.622,-4.991 -6.382,-4.637 h -7.889 l -6.382,4.637 -2.438,7.503 1.1,3.387 c 8.19,2.341 17.799,0.229 23.613,-5.899 z"
   id="path318" />
	<path
   style="fill:#ff3fab"
   d="m 52.716,295.955 1.338,4.116 6.382,4.637 h 7.889 l 6.382,-4.637 2.438,-7.503 -0.816,-2.512 c -5.814,6.129 -15.423,8.241 -23.613,5.899 z"
   id="path319" />
	<polygon
   style="fill:#fe91cf"
   points="54.054,285.065 51.736,275.164 43.92,285.921 "
   id="polygon319" />
	<polygon
   style="fill:#ff3fab"
   points="54.054,285.065 60.437,280.429 51.736,275.164 "
   id="polygon320" />
	<polygon
   style="fill:#fe91cf"
   points="51.616,292.568 43.92,285.921 43.92,299.216 "
   id="polygon321" />
	<polygon
   style="fill:#ff3fab"
   points="51.616,292.568 54.054,285.065 43.92,285.921 "
   id="polygon322" />
	<polygon
   style="fill:#ff3fab"
   points="77.026,275.164 74.707,285.065 84.841,285.921 "
   id="polygon323" />
	<polygon
   style="fill:#ff3fab"
   points="68.325,280.429 74.707,285.065 77.026,275.164 "
   id="polygon324" />
	<polygon
   style="fill:#ffb1d9"
   points="68.325,280.429 77.026,275.164 64.381,271.056 "
   id="polygon325" />
	<polygon
   style="fill:#e11287"
   points="74.707,300.071 77.026,309.973 84.841,299.216 "
   id="polygon326" />
	<polygon
   style="fill:#8a1155"
   points="74.707,300.071 68.325,304.708 77.026,309.973 "
   id="polygon327" />
	<polygon
   style="fill:#e11287"
   points="60.437,304.708 51.736,309.973 64.381,314.082 "
   id="polygon328" />
	<polygon
   style="fill:#8a1155"
   points="68.325,304.708 60.437,304.708 64.381,314.082 "
   id="polygon329" />
	<polygon
   style="fill:#e11287"
   points="77.146,292.568 84.841,299.216 84.841,285.921 "
   id="polygon330" />
	<polygon
   style="fill:#8a1155"
   points="77.146,292.568 74.707,300.071 84.841,299.216 "
   id="polygon331" />
	<polygon
   style="fill:#e11287"
   points="54.054,300.071 43.92,299.216 51.736,309.973 "
   id="polygon332" />
	<polygon
   style="fill:#b0176a"
   points="60.437,304.708 54.054,300.071 51.736,309.973 "
   id="polygon333" />
</g>



</svg>
